<?xml version="1.0" encoding="utf-8"?>
<!-- Generator: Adobe Illustrator 16.0.3, SVG Export Plug-In . SVG Version: 6.00 Build 0)  -->
<!DOCTYPE svg PUBLIC "-//W3C//DTD SVG 1.1//EN" "http://www.w3.org/Graphics/SVG/1.1/DTD/svg11.dtd">
<svg version="1.1" id="Layer_1" xmlns="http://www.w3.org/2000/svg" xmlns:xlink="http://www.w3.org/1999/xlink" x="0px" y="0px"
	 width="2732px" height="2732px" viewBox="0 0 2732 2732" enable-background="new 0 0 2732 2732" xml:space="preserve">
<g>
	<g>
		<defs>
			<rect id="SVGID_1_" x="87" y="87" width="2558" height="2558"/>
		</defs>
		<clipPath id="SVGID_2_">
			<use xlink:href="#SVGID_1_"  overflow="visible"/>
		</clipPath>
		<path clip-path="url(#SVGID_2_)" fill="#FFFFFF" d="M1708.23,971.058c-37.221-130.398-113.66-225.574-244.808-271.288
			c-76.19-26.48-155.128-34.724-235.066-35.223c-95.674-0.749-191.6-0.25-287.275-0.25h-16.987v662.982
			c8.743-2.747,15.988-4.997,23.232-7.493c169.118-58.954,341.982-102.67,519.093-127.901
			c85.684-12.24,171.867-19.235,257.801-28.477c8.244-1,14.986-0.75,13.986-12.991
			C1733.46,1089.715,1724.968,1029.761,1708.23,971.058"/>
	</g>
	<g>
		<defs>
			<rect id="SVGID_3_" x="87" y="87" width="2558" height="2558"/>
		</defs>
		<clipPath id="SVGID_4_">
			<use xlink:href="#SVGID_3_"  overflow="visible"/>
		</clipPath>
		<path clip-path="url(#SVGID_4_)" fill="#FFFFFF" d="M1365.999,87C660.8,87,87,660.8,87,1365.999S660.8,2645,1365.999,2645
			S2645,2071.198,2645,1365.999S2071.198,87,1365.999,87 M391.511,635.32c324.246-434.41,880.811-593.786,1375.675-419.921
			c496.361,174.114,762.154,617.268,799.873,993.223c-236.813-24.729-473.379-42.716-710.692-11.99
			c-236.316,30.727-465.139,89.681-686.465,177.86c-221.577,88.431-429.664,201.842-628.509,339.485V700.02
			c-1.248-0.5-2.497-1-3.997-1.25c-2.747,3.249-5.494,6.247-8.243,9.743c-152.631,199.094-227.821,423.669-223.075,674.723
			c2.747,146.137,35.222,285.276,96.424,417.925c2.498,5.242,6.245,9.99-1.25,15.485c-39.468,29.228-78.437,59.204-117.907,88.932
			C107.483,1578.333,74.51,1059.738,391.511,635.32 M382.269,2075.445l49.71-38.971c152.63-138.641,323.498-277.034,495.113-390.943
			l-3.748,142.139c0.5,37.222,0.25,74.44,0.25,112.662c4.497,0.498,7.996,1.499,11.492,1.499c114.161,0,228.323,0.997,342.732-1.001
			c87.182-1.499,170.867-19.731,246.308-66.697c86.432-54.205,138.141-134.646,170.368-229.068
			c30.474-88.684,41.966-180.862,45.464-274.289c0.248-9.742,0.248-38.969,0.248-57.704h-0.248c0-26.48,0-17.986,0.248,0
			c132.647-37.969,266.041-48.213,404.436-60.453c0,30.227,0.499,44.216,0,72.943c-3,168.868-31.978,332.738-105.92,485.872
			c-102.666,213.08-263.041,359.967-494.111,423.419c-67.447,18.483-136.394,26.729-206.339,26.977
			c-188.853,0.251-377.705,0-566.557,0h-17.486c6.745,4.996,10.243,8.245,14.24,10.743
			c133.644,90.678,279.78,150.131,439.905,171.613c59.204,7.997,117.659,11.99,175.863,12.244
			c573.554-11.743,1036.688-481.876,1036.688-1058.173h156.38c0,5.744-0.249,11.49-0.249,17.236l0.249-0.249
			c2.747,386.446-212.583,820.606-628.757,1046.93c-173.866,96.178-373.71,150.885-586.043,150.885
			C960.316,2573.304,603.347,2376.96,382.269,2075.445"/>
	</g>
	<g>
		<defs>
			<rect id="SVGID_5_" x="87" y="87" width="2558" height="2558"/>
		</defs>
		<clipPath id="SVGID_6_">
			<use xlink:href="#SVGID_5_"  overflow="visible"/>
		</clipPath>
		<path clip-path="url(#SVGID_6_)" fill="#0A1B24" d="M283.346,1905.578c39.22-29.728,78.438-59.704,117.907-88.932
			c7.245-5.495,3.499-10.243,1.25-15.485c-61.202-132.648-93.677-272.041-96.424-417.925
			c-4.747-251.054,70.444-475.629,223.075-674.723c2.498-3.247,5.496-6.495,8.243-9.743c1.25,0.5,2.5,1,3.997,1.25v1013.708
			c199.096-137.394,407.183-251.054,628.509-339.484c221.326-88.181,449.897-147.134,686.465-177.86
			c237.562-30.728,473.879-12.741,710.692,11.99c-37.719-375.706-303.512-818.86-799.873-992.974
			C1272.322,41.784,715.757,200.911,391.262,635.32C74.51,1059.738,107.483,1578.333,283.346,1905.578 M1724.221,1163.409
			c-85.934,9.242-172.367,16.236-257.801,28.477c-177.111,25.23-350.225,68.947-519.093,127.901
			c-7.244,2.496-14.489,4.747-23.232,7.493V664.297h16.987c95.675,0,191.601-0.499,287.275,0.25
			c79.938,0.5,159.125,8.743,235.066,35.223c131.147,45.714,207.338,140.641,244.808,271.288
			c16.737,58.703,25.229,118.657,30.227,179.36C1739.457,1162.659,1732.465,1162.659,1724.221,1163.409"/>
	</g>
	<g>
		<defs>
			<rect id="SVGID_7_" x="87" y="87" width="2558" height="2558"/>
		</defs>
		<clipPath id="SVGID_8_">
			<use xlink:href="#SVGID_7_"  overflow="visible"/>
		</clipPath>
		<path clip-path="url(#SVGID_8_)" fill="#ED2224" d="M1739.707,1272.822L1739.707,1272.822
			C1739.707,1254.836,1739.707,1246.343,1739.707,1272.822"/>
	</g>
	<g>
		<defs>
			<rect id="SVGID_9_" x="87" y="87" width="2558" height="2558"/>
		</defs>
		<clipPath id="SVGID_10_">
			<use xlink:href="#SVGID_9_"  overflow="visible"/>
		</clipPath>
		<path clip-path="url(#SVGID_10_)" fill="#ED2224" d="M1362.253,2573.304c212.334,0,412.178-54.953,586.041-150.882
			c416.426-226.319,631.505-660.481,628.76-1046.93l-0.25,0.25c0-5.747,0.25-11.49,0.25-17.236h-156.377
			c0,576.3-463.14,1046.43-1036.69,1058.17c-58.206-0.246-116.661-4.246-175.865-12.239
			c-160.124-21.733-306.259-81.187-439.905-171.614c-3.996-2.748-7.495-5.746-14.239-10.742h17.486
			c188.853,0,377.704,0.249,566.557,0c69.696-0.251,138.891-8.495,206.338-26.979c231.321-63.453,391.696-210.336,494.116-423.42
			c73.69-153.382,102.666-317.002,105.913-485.87c0.499-28.977,0-42.717,0-72.944c-138.642,12.241-271.785,22.483-404.431,60.455
			c0,18.734,0,47.961-0.251,57.703c-3.496,93.428-14.987,185.355-45.463,274.287c-32.477,94.424-83.938,174.861-170.367,229.071
			c-75.191,47.211-158.877,65.448-246.308,66.698c-114.161,1.746-228.322,0.749-342.733,0.998c-3.497,0-6.995-0.749-11.492-1.499
			c0-38.22,0.25-75.441-0.249-112.661l3.747-142.14c-171.365,113.91-342.482,252.304-495.113,391.194l-49.46,38.471
			C603.347,2376.96,960.316,2573.304,1362.253,2573.304"/>
	</g>
</g>
</svg>
